<svg xmlns="http://www.w3.org/2000/svg" xmlns:xlink="http://www.w3.org/1999/xlink" width="1640" zoomAndPan="magnify" viewBox="0 0 1230 693.000001" height="924" preserveAspectRatio="xMidYMid meet" version="1.0"><defs><clipPath id="id1"><path d="M 53 165.277344 L 369 165.277344 L 369 366 L 53 366 Z M 53 165.277344 " clip-rule="nonzero"/></clipPath><clipPath id="id2"><path d="M 3 427 L 426 427 L 426 442.375 L 3 442.375 Z M 3 427 " clip-rule="nonzero"/></clipPath><clipPath id="id3"><path d="M 842 380 L 1228.925781 380 L 1228.925781 427 L 842 427 Z M 842 380 " clip-rule="nonzero"/></clipPath><clipPath id="id4"><path d="M 842 426 L 1228.925781 426 L 1228.925781 442.375 L 842 442.375 Z M 842 426 " clip-rule="nonzero"/></clipPath><clipPath id="id5"><path d="M 842 426 L 1224 426 L 1224 442.375 L 842 442.375 Z M 842 426 " clip-rule="nonzero"/></clipPath><clipPath id="id6"><path d="M 875 165.277344 L 1196 165.277344 L 1196 378 L 875 378 Z M 875 165.277344 " clip-rule="nonzero"/></clipPath><clipPath id="id7"><path d="M 875 165.277344 L 1192 165.277344 L 1192 374 L 875 374 Z M 875 165.277344 " clip-rule="nonzero"/></clipPath><clipPath id="id8"><path d="M 447 165.277344 L 802 165.277344 L 802 393 L 447 393 Z M 447 165.277344 " clip-rule="nonzero"/></clipPath><clipPath id="id9"><path d="M 554 422 L 695 422 L 695 442.375 L 554 442.375 Z M 554 422 " clip-rule="nonzero"/></clipPath></defs><g clip-path="url(#id1)"><path fill="rgb(13.328552%, 14.118958%, 16.079712%)" d="M 53.878906 365.003906 L 368.234375 365.003906 L 368.234375 165.292969 L 53.878906 165.292969 Z M 53.878906 365.003906 " fill-opacity="1" fill-rule="nonzero"/></g><path fill="rgb(51.759338%, 84.309387%, 89.019775%)" d="M 65.382812 353.007812 L 356.730469 353.007812 L 356.730469 177.285156 L 65.382812 177.285156 Z M 65.382812 353.007812 " fill-opacity="1" fill-rule="nonzero"/><path fill="rgb(61.569214%, 87.449646%, 90.979004%)" d="M 356.730469 353.007812 L 65.382812 353.007812 L 65.382812 177.285156 L 356.730469 353.007812 " fill-opacity="1" fill-rule="nonzero"/><g clip-path="url(#id2)"><path fill="rgb(54.508972%, 53.329468%, 53.729248%)" d="M 3.878906 427.285156 C 0.988281 431.0625 6.515625 442.363281 15.171875 442.363281 C 148 442.363281 280.828125 442.363281 413.660156 442.363281 C 422.3125 442.363281 427.761719 431.0625 424.449219 427.285156 L 3.878906 427.285156 " fill-opacity="1" fill-rule="nonzero"/></g><path fill="rgb(95.689392%, 95.689392%, 95.689392%)" d="M 423.335938 425.214844 C 426.652344 429 422.3125 432.058594 413.660156 432.058594 C 280.828125 432.058594 148 432.058594 15.171875 432.058594 C 6.515625 432.058594 1.839844 429 4.730469 425.214844 C 18.328125 407.429688 31.925781 389.640625 45.527344 371.847656 C 48.414062 368.070312 55.976562 365.003906 62.417969 365.003906 C 161.238281 365.003906 260.058594 365.003906 358.882812 365.003906 C 365.316406 365.003906 373.230469 368.070312 376.539062 371.847656 C 392.136719 389.640625 407.738281 407.429688 423.335938 425.214844 " fill-opacity="1" fill-rule="nonzero"/><path fill="rgb(56.858826%, 56.079102%, 56.079102%)" d="M 93.230469 383.007812 C 87.84375 383.007812 85.160156 383.011719 79.773438 383.011719 C 81.675781 380.191406 82.628906 378.773438 84.53125 375.953125 C 89.699219 375.953125 92.28125 375.953125 97.457031 375.953125 C 95.765625 378.773438 94.917969 380.1875 93.230469 383.007812 " fill-opacity="1" fill-rule="nonzero"/><path fill="rgb(56.858826%, 56.079102%, 56.079102%)" d="M 110.671875 383.011719 C 105.289062 383.011719 102.597656 383.011719 97.214844 383.011719 C 98.839844 380.191406 99.660156 378.773438 101.285156 375.953125 C 106.453125 375.953125 109.035156 375.953125 114.207031 375.953125 C 112.792969 378.773438 112.085938 380.191406 110.671875 383.011719 " fill-opacity="1" fill-rule="nonzero"/><path fill="rgb(56.858826%, 56.079102%, 56.079102%)" d="M 105.097656 374.601562 C 97.234375 374.601562 93.308594 374.601562 85.453125 374.601562 C 86.160156 373.550781 86.515625 373.023438 87.226562 371.964844 C 94.964844 371.964844 98.832031 371.964844 106.570312 371.964844 C 105.980469 373.023438 105.683594 373.550781 105.097656 374.601562 " fill-opacity="1" fill-rule="nonzero"/><path fill="rgb(56.858826%, 56.079102%, 56.079102%)" d="M 128.125 374.605469 C 120.265625 374.605469 116.332031 374.601562 108.472656 374.601562 C 109.042969 373.550781 109.324219 373.023438 109.894531 371.964844 C 117.632812 371.964844 121.503906 371.964844 129.242188 371.964844 C 128.800781 373.023438 128.574219 373.550781 128.125 374.605469 " fill-opacity="1" fill-rule="nonzero"/><path fill="rgb(56.858826%, 56.079102%, 56.079102%)" d="M 151.15625 374.601562 C 143.292969 374.601562 139.363281 374.601562 131.5 374.601562 C 131.925781 373.550781 132.136719 373.023438 132.566406 371.964844 C 140.304688 371.964844 144.179688 371.964844 151.917969 371.964844 C 151.617188 373.023438 151.460938 373.550781 151.15625 374.601562 " fill-opacity="1" fill-rule="nonzero"/><path fill="rgb(56.858826%, 56.079102%, 56.079102%)" d="M 174.183594 374.601562 C 166.324219 374.601562 162.390625 374.601562 154.53125 374.601562 C 154.8125 373.550781 154.960938 373.023438 155.242188 371.964844 C 162.980469 371.964844 166.855469 371.964844 174.59375 371.964844 C 174.429688 373.023438 174.34375 373.550781 174.183594 374.601562 " fill-opacity="1" fill-rule="nonzero"/><path fill="rgb(56.858826%, 56.079102%, 56.079102%)" d="M 197.210938 374.601562 C 189.351562 374.601562 185.421875 374.601562 177.558594 374.601562 C 177.703125 373.550781 177.773438 373.023438 177.914062 371.964844 C 185.652344 371.964844 189.523438 371.964844 197.261719 371.964844 C 197.242188 373.023438 197.234375 373.550781 197.210938 374.601562 " fill-opacity="1" fill-rule="nonzero"/><path fill="rgb(56.858826%, 56.079102%, 56.079102%)" d="M 220.238281 374.601562 C 212.382812 374.601562 208.453125 374.601562 200.589844 374.601562 C 200.589844 373.550781 200.589844 373.023438 200.589844 371.964844 C 208.332031 371.964844 212.199219 371.964844 219.9375 371.964844 C 220.058594 373.023438 220.117188 373.550781 220.238281 374.601562 " fill-opacity="1" fill-rule="nonzero"/><path fill="rgb(56.858826%, 56.079102%, 56.079102%)" d="M 243.273438 374.601562 C 235.410156 374.601562 231.480469 374.601562 223.617188 374.601562 C 223.476562 373.550781 223.40625 373.023438 223.261719 371.964844 C 231.003906 371.964844 234.875 371.964844 242.613281 371.964844 C 242.878906 373.023438 243.007812 373.550781 243.273438 374.601562 " fill-opacity="1" fill-rule="nonzero"/><path fill="rgb(56.858826%, 56.079102%, 56.079102%)" d="M 266.300781 374.601562 C 258.441406 374.601562 254.511719 374.601562 246.648438 374.601562 C 246.359375 373.550781 246.21875 373.023438 245.9375 371.964844 C 253.675781 371.964844 257.546875 371.964844 265.285156 371.964844 C 265.695312 373.023438 265.898438 373.550781 266.300781 374.601562 " fill-opacity="1" fill-rule="nonzero"/><path fill="rgb(56.858826%, 56.079102%, 56.079102%)" d="M 289.332031 374.601562 C 281.46875 374.601562 277.539062 374.601562 269.679688 374.601562 C 269.25 373.550781 269.039062 373.023438 268.609375 371.964844 C 276.347656 371.964844 280.222656 371.964844 287.960938 371.964844 C 288.511719 373.023438 288.785156 373.550781 289.332031 374.601562 " fill-opacity="1" fill-rule="nonzero"/><path fill="rgb(56.858826%, 56.079102%, 56.079102%)" d="M 312.355469 374.601562 C 304.496094 374.601562 300.570312 374.601562 292.707031 374.601562 C 292.136719 373.550781 291.851562 373.023438 291.285156 371.964844 C 299.019531 371.964844 302.890625 371.964844 310.632812 371.964844 C 311.320312 373.023438 311.664062 373.550781 312.355469 374.601562 " fill-opacity="1" fill-rule="nonzero"/><path fill="rgb(56.858826%, 56.079102%, 56.079102%)" d="M 338.054688 374.601562 C 329.128906 374.601562 324.660156 374.601562 315.738281 374.601562 C 315.027344 373.550781 314.667969 373.023438 313.957031 371.964844 C 322.746094 371.964844 327.144531 371.964844 335.933594 371.964844 C 336.78125 373.023438 337.203125 373.550781 338.054688 374.601562 " fill-opacity="1" fill-rule="nonzero"/><path fill="rgb(56.858826%, 56.079102%, 56.079102%)" d="M 128.105469 383.007812 C 122.726562 383.007812 120.035156 383.011719 114.652344 383.011719 C 116.003906 380.191406 116.683594 378.777344 118.03125 375.957031 C 123.207031 375.957031 125.785156 375.957031 130.957031 375.957031 C 129.820312 378.777344 129.25 380.1875 128.105469 383.007812 " fill-opacity="1" fill-rule="nonzero"/><path fill="rgb(56.858826%, 56.079102%, 56.079102%)" d="M 145.542969 383.011719 C 140.167969 383.011719 137.476562 383.011719 132.089844 383.011719 C 133.167969 380.191406 133.710938 378.773438 134.789062 375.953125 C 139.957031 375.953125 142.539062 375.957031 147.714844 375.957031 C 146.847656 378.777344 146.414062 380.191406 145.542969 383.011719 " fill-opacity="1" fill-rule="nonzero"/><path fill="rgb(56.858826%, 56.079102%, 56.079102%)" d="M 162.992188 383.011719 C 157.605469 383.011719 154.917969 383.007812 149.535156 383.007812 C 150.335938 380.1875 150.742188 378.777344 151.542969 375.957031 C 156.710938 375.957031 159.292969 375.953125 164.464844 375.953125 C 163.875 378.773438 163.578125 380.191406 162.992188 383.011719 " fill-opacity="1" fill-rule="nonzero"/><path fill="rgb(56.858826%, 56.079102%, 56.079102%)" d="M 180.425781 383.011719 C 175.046875 383.011719 172.355469 383.011719 166.972656 383.011719 C 167.5 380.191406 167.765625 378.773438 168.292969 375.953125 C 173.460938 375.953125 176.042969 375.953125 181.21875 375.953125 C 180.898438 378.773438 180.742188 380.191406 180.425781 383.011719 " fill-opacity="1" fill-rule="nonzero"/><path fill="rgb(56.858826%, 56.079102%, 56.079102%)" d="M 197.859375 383.011719 C 192.484375 383.011719 189.796875 383.011719 184.414062 383.011719 C 184.664062 380.191406 184.796875 378.773438 185.050781 375.953125 C 190.214844 375.953125 192.796875 375.953125 197.96875 375.953125 C 197.925781 378.773438 197.902344 380.191406 197.859375 383.011719 " fill-opacity="1" fill-rule="nonzero"/><path fill="rgb(56.858826%, 56.079102%, 56.079102%)" d="M 215.308594 383.011719 C 209.925781 383.011719 207.238281 383.011719 201.855469 383.011719 C 201.832031 380.191406 201.824219 378.773438 201.800781 375.953125 C 206.96875 375.953125 209.554688 375.953125 214.722656 375.953125 C 214.957031 378.773438 215.074219 380.191406 215.308594 383.011719 " fill-opacity="1" fill-rule="nonzero"/><path fill="rgb(56.858826%, 56.079102%, 56.079102%)" d="M 232.742188 383.011719 C 227.367188 383.011719 224.671875 383.011719 219.292969 383.011719 C 219 380.191406 218.851562 378.773438 218.558594 375.953125 C 223.722656 375.953125 226.308594 375.953125 231.476562 375.953125 C 231.980469 378.773438 232.234375 380.191406 232.742188 383.011719 " fill-opacity="1" fill-rule="nonzero"/><path fill="rgb(56.858826%, 56.079102%, 56.079102%)" d="M 250.179688 383.011719 C 244.796875 383.011719 242.109375 383.011719 236.730469 383.011719 C 236.160156 380.191406 235.871094 378.773438 235.304688 375.953125 C 240.472656 375.953125 243.054688 375.953125 248.226562 375.953125 C 249.007812 378.773438 249.398438 380.191406 250.179688 383.011719 " fill-opacity="1" fill-rule="nonzero"/><path fill="rgb(56.858826%, 56.079102%, 56.079102%)" d="M 87.59375 392.414062 C 81.929688 392.414062 79.097656 392.414062 73.433594 392.414062 C 75.335938 389.59375 76.285156 388.183594 78.183594 385.363281 C 83.640625 385.363281 86.367188 385.363281 91.816406 385.363281 C 90.132812 388.183594 89.285156 389.59375 87.59375 392.414062 " fill-opacity="1" fill-rule="nonzero"/><path fill="rgb(56.858826%, 56.079102%, 56.079102%)" d="M 105.953125 392.414062 C 100.285156 392.414062 97.457031 392.414062 91.792969 392.414062 C 93.417969 389.59375 94.230469 388.183594 95.859375 385.363281 C 101.3125 385.363281 104.042969 385.363281 109.492188 385.363281 C 108.078125 388.179688 107.367188 389.59375 105.953125 392.414062 " fill-opacity="1" fill-rule="nonzero"/><path fill="rgb(56.858826%, 56.079102%, 56.079102%)" d="M 124.308594 392.414062 C 118.640625 392.414062 115.804688 392.414062 110.144531 392.414062 C 111.5 389.59375 112.175781 388.183594 113.523438 385.363281 C 118.980469 385.363281 121.703125 385.363281 127.15625 385.363281 C 126.015625 388.183594 125.449219 389.59375 124.308594 392.414062 " fill-opacity="1" fill-rule="nonzero"/><path fill="rgb(56.858826%, 56.079102%, 56.079102%)" d="M 142.667969 392.414062 C 136.996094 392.414062 134.164062 392.414062 128.496094 392.414062 C 129.574219 389.59375 130.117188 388.183594 131.191406 385.363281 C 136.648438 385.363281 139.371094 385.363281 144.828125 385.363281 C 143.960938 388.183594 143.527344 389.59375 142.667969 392.414062 " fill-opacity="1" fill-rule="nonzero"/><path fill="rgb(56.858826%, 56.079102%, 56.079102%)" d="M 161.023438 392.414062 C 155.359375 392.414062 152.527344 392.414062 146.863281 392.414062 C 147.664062 389.59375 148.0625 388.183594 148.867188 385.363281 C 154.320312 385.363281 157.042969 385.363281 162.496094 385.363281 C 161.902344 388.183594 161.609375 389.59375 161.023438 392.414062 " fill-opacity="1" fill-rule="nonzero"/><path fill="rgb(56.858826%, 56.079102%, 56.079102%)" d="M 179.371094 392.414062 C 173.703125 392.414062 170.875 392.414062 165.210938 392.414062 C 165.738281 389.59375 166.003906 388.183594 166.53125 385.363281 C 171.980469 385.363281 174.707031 385.363281 180.164062 385.363281 C 179.847656 388.179688 179.6875 389.59375 179.371094 392.414062 " fill-opacity="1" fill-rule="nonzero"/><path fill="rgb(56.858826%, 56.079102%, 56.079102%)" d="M 197.722656 392.414062 C 192.058594 392.414062 189.230469 392.414062 183.570312 392.414062 C 183.820312 389.59375 183.953125 388.183594 184.203125 385.363281 C 189.648438 385.363281 192.375 385.363281 197.828125 385.363281 C 197.785156 388.183594 197.765625 389.59375 197.722656 392.414062 " fill-opacity="1" fill-rule="nonzero"/><path fill="rgb(56.858826%, 56.079102%, 56.079102%)" d="M 216.085938 392.414062 C 210.421875 392.414062 207.589844 392.414062 201.925781 392.414062 C 201.902344 389.59375 201.894531 388.183594 201.871094 385.363281 C 207.324219 385.363281 210.046875 385.363281 215.5 385.363281 C 215.734375 388.183594 215.851562 389.59375 216.085938 392.414062 " fill-opacity="1" fill-rule="nonzero"/><path fill="rgb(56.858826%, 56.079102%, 56.079102%)" d="M 234.4375 392.414062 C 228.777344 392.414062 225.945312 392.414062 220.285156 392.414062 C 219.988281 389.59375 219.839844 388.183594 219.542969 385.363281 C 224.992188 385.363281 227.71875 385.363281 233.164062 385.363281 C 233.675781 388.183594 233.929688 389.59375 234.4375 392.414062 " fill-opacity="1" fill-rule="nonzero"/><path fill="rgb(56.858826%, 56.079102%, 56.079102%)" d="M 252.792969 392.414062 C 247.128906 392.414062 244.292969 392.414062 238.632812 392.414062 C 238.0625 389.59375 237.773438 388.183594 237.203125 385.363281 C 242.65625 385.363281 245.382812 385.363281 250.832031 385.363281 C 251.621094 388.183594 252.011719 389.59375 252.792969 392.414062 " fill-opacity="1" fill-rule="nonzero"/><path fill="rgb(56.858826%, 56.079102%, 56.079102%)" d="M 81.960938 401.824219 C 76.007812 401.824219 73.039062 401.824219 67.09375 401.824219 C 68.996094 399.003906 69.945312 397.589844 71.847656 394.769531 C 77.585938 394.769531 80.453125 394.769531 86.1875 394.769531 C 84.496094 397.585938 83.648438 399.003906 81.960938 401.824219 " fill-opacity="1" fill-rule="nonzero"/><path fill="rgb(56.858826%, 56.079102%, 56.079102%)" d="M 101.230469 401.824219 C 95.285156 401.824219 92.3125 401.824219 86.367188 401.824219 C 87.996094 399.003906 88.808594 397.589844 90.433594 394.769531 C 96.171875 394.769531 99.035156 394.769531 104.773438 394.769531 C 103.355469 397.589844 102.648438 399.003906 101.230469 401.824219 " fill-opacity="1" fill-rule="nonzero"/><path fill="rgb(56.858826%, 56.079102%, 56.079102%)" d="M 120.503906 401.824219 C 114.558594 401.824219 111.582031 401.824219 105.636719 401.824219 C 106.988281 399.003906 107.664062 397.589844 109.019531 394.769531 C 114.753906 394.769531 117.617188 394.769531 123.355469 394.769531 C 122.21875 397.589844 121.644531 399.003906 120.503906 401.824219 " fill-opacity="1" fill-rule="nonzero"/><path fill="rgb(56.858826%, 56.079102%, 56.079102%)" d="M 139.777344 401.824219 C 133.828125 401.824219 130.851562 401.824219 124.902344 401.824219 C 125.980469 399.003906 126.519531 397.589844 127.597656 394.769531 C 133.335938 394.769531 136.203125 394.769531 141.941406 394.769531 C 141.078125 397.589844 140.644531 399.003906 139.777344 401.824219 " fill-opacity="1" fill-rule="nonzero"/><path fill="rgb(56.858826%, 56.079102%, 56.079102%)" d="M 159.050781 401.824219 C 153.105469 401.824219 150.128906 401.824219 144.183594 401.824219 C 144.984375 399.003906 145.390625 397.589844 146.1875 394.769531 C 151.921875 394.769531 154.800781 394.769531 160.527344 394.769531 C 159.941406 397.589844 159.636719 399.003906 159.050781 401.824219 " fill-opacity="1" fill-rule="nonzero"/><path fill="rgb(56.858826%, 56.079102%, 56.079102%)" d="M 178.3125 401.824219 C 172.367188 401.824219 169.398438 401.824219 163.453125 401.824219 C 163.972656 399.003906 164.242188 397.589844 164.769531 394.769531 C 170.507812 394.769531 173.375 394.769531 179.109375 394.769531 C 178.789062 397.589844 178.632812 399.003906 178.3125 401.824219 " fill-opacity="1" fill-rule="nonzero"/><path fill="rgb(56.858826%, 56.079102%, 56.079102%)" d="M 197.585938 401.824219 C 191.640625 401.824219 188.671875 401.824219 182.722656 401.824219 C 182.980469 399.003906 183.105469 397.589844 183.359375 394.769531 C 189.089844 394.769531 191.957031 394.769531 197.691406 394.769531 C 197.648438 397.589844 197.628906 399.003906 197.585938 401.824219 " fill-opacity="1" fill-rule="nonzero"/><path fill="rgb(56.858826%, 56.079102%, 56.079102%)" d="M 216.863281 401.824219 C 210.917969 401.824219 207.941406 401.824219 201.996094 401.824219 C 201.972656 399.003906 201.964844 397.589844 201.945312 394.769531 C 207.679688 394.769531 210.546875 394.769531 216.28125 394.769531 C 216.515625 397.589844 216.628906 399.003906 216.863281 401.824219 " fill-opacity="1" fill-rule="nonzero"/><path fill="rgb(56.858826%, 56.079102%, 56.079102%)" d="M 236.132812 401.824219 C 230.191406 401.824219 227.214844 401.824219 221.269531 401.824219 C 220.972656 399.003906 220.828125 397.589844 220.535156 394.769531 C 226.265625 394.769531 229.132812 394.769531 234.859375 394.769531 C 235.367188 397.589844 235.625 399.003906 236.132812 401.824219 " fill-opacity="1" fill-rule="nonzero"/><path fill="rgb(56.858826%, 56.079102%, 56.079102%)" d="M 255.398438 401.824219 C 249.453125 401.824219 246.480469 401.824219 240.535156 401.824219 C 239.964844 399.003906 239.679688 397.589844 239.105469 394.769531 C 244.839844 394.769531 247.707031 394.769531 253.441406 394.769531 C 254.222656 397.589844 254.617188 399.003906 255.398438 401.824219 " fill-opacity="1" fill-rule="nonzero"/><path fill="rgb(56.858826%, 56.079102%, 56.079102%)" d="M 76.328125 411.226562 C 70.101562 411.226562 66.980469 411.226562 60.75 411.226562 C 62.652344 408.40625 63.609375 406.992188 65.511719 404.175781 C 71.527344 404.175781 74.535156 404.175781 80.550781 404.175781 C 78.863281 406.992188 78.019531 408.40625 76.328125 411.226562 " fill-opacity="1" fill-rule="nonzero"/><path fill="rgb(56.858826%, 56.079102%, 56.079102%)" d="M 96.519531 411.226562 C 90.285156 411.226562 87.175781 411.226562 80.945312 411.226562 C 82.570312 408.40625 83.386719 406.992188 85.015625 404.175781 C 91.03125 404.175781 94.039062 404.175781 100.058594 404.175781 C 98.644531 406.992188 97.933594 408.40625 96.519531 411.226562 " fill-opacity="1" fill-rule="nonzero"/><path fill="rgb(56.858826%, 56.079102%, 56.079102%)" d="M 116.699219 411.226562 C 110.472656 411.226562 107.355469 411.226562 101.128906 411.226562 C 102.480469 408.40625 103.15625 406.992188 104.511719 404.175781 C 110.527344 404.175781 113.539062 404.175781 119.554688 404.175781 C 118.414062 406.992188 117.84375 408.40625 116.699219 411.226562 " fill-opacity="1" fill-rule="nonzero"/><path fill="rgb(56.858826%, 56.079102%, 56.079102%)" d="M 136.820312 411.453125 C 130.582031 411.453125 127.460938 411.453125 121.226562 411.453125 C 122.339844 408.542969 122.894531 407.085938 124.007812 404.175781 C 130.023438 404.175781 133.035156 404.175781 139.058594 404.175781 C 138.164062 407.085938 137.714844 408.542969 136.820312 411.453125 " fill-opacity="1" fill-rule="nonzero"/><path fill="rgb(56.858826%, 56.079102%, 56.079102%)" d="M 258.011719 411.226562 C 219.175781 411.226562 180.335938 411.226562 141.5 411.226562 C 142.300781 408.40625 142.707031 406.992188 143.503906 404.175781 C 181.023438 404.175781 218.539062 404.175781 256.054688 404.175781 C 256.839844 406.992188 257.230469 408.40625 258.011719 411.226562 " fill-opacity="1" fill-rule="nonzero"/><path fill="rgb(56.858826%, 56.079102%, 56.079102%)" d="M 171.890625 426.726562 C 201.355469 426.726562 230.816406 426.726562 260.277344 426.726562 L 252.835938 414.707031 C 224.371094 414.707031 207.386719 414.707031 178.925781 414.707031 L 171.890625 426.726562 " fill-opacity="1" fill-rule="nonzero"/><path fill="rgb(56.858826%, 56.079102%, 56.079102%)" d="M 265.957031 383.011719 C 260.578125 383.011719 257.890625 383.011719 252.503906 383.011719 C 251.683594 380.191406 251.277344 378.773438 250.457031 375.953125 C 255.625 375.953125 258.210938 375.953125 263.378906 375.953125 C 264.414062 378.773438 264.929688 380.191406 265.957031 383.011719 " fill-opacity="1" fill-rule="nonzero"/><path fill="rgb(56.858826%, 56.079102%, 56.079102%)" d="M 269.398438 392.414062 C 263.738281 392.414062 260.902344 392.414062 255.234375 392.414062 C 254.414062 389.59375 254.007812 388.183594 253.1875 385.363281 C 258.644531 385.363281 261.367188 385.363281 266.824219 385.363281 C 267.851562 388.183594 268.367188 389.59375 269.398438 392.414062 " fill-opacity="1" fill-rule="nonzero"/><path fill="rgb(56.858826%, 56.079102%, 56.079102%)" d="M 272.835938 401.824219 C 266.890625 401.824219 263.914062 401.824219 257.96875 401.824219 C 257.152344 399.003906 256.742188 397.589844 255.921875 394.769531 C 261.65625 394.769531 264.523438 394.769531 270.261719 394.769531 C 271.292969 397.589844 271.804688 399.003906 272.835938 401.824219 " fill-opacity="1" fill-rule="nonzero"/><path fill="rgb(56.858826%, 56.079102%, 56.079102%)" d="M 276.277344 411.226562 C 270.046875 411.226562 266.933594 411.226562 260.699219 411.226562 C 259.882812 408.40625 259.472656 406.992188 258.652344 404.175781 C 264.667969 404.175781 267.675781 404.175781 273.699219 404.175781 C 274.730469 406.992188 275.246094 408.40625 276.277344 411.226562 " fill-opacity="1" fill-rule="nonzero"/><path fill="rgb(56.858826%, 56.079102%, 56.079102%)" d="M 281.734375 383.011719 C 276.351562 383.011719 273.660156 383.011719 268.28125 383.011719 C 267.210938 380.191406 266.675781 378.773438 265.605469 375.953125 C 270.78125 375.953125 273.367188 375.953125 278.539062 375.953125 C 279.8125 378.773438 280.453125 380.191406 281.734375 383.011719 " fill-opacity="1" fill-rule="nonzero"/><path fill="rgb(56.858826%, 56.079102%, 56.079102%)" d="M 286.003906 392.414062 C 280.335938 392.414062 277.5 392.414062 271.839844 392.414062 C 270.769531 389.59375 270.234375 388.183594 269.167969 385.363281 C 274.621094 385.363281 277.347656 385.363281 282.800781 385.363281 C 284.078125 388.179688 284.722656 389.59375 286.003906 392.414062 " fill-opacity="1" fill-rule="nonzero"/><path fill="rgb(56.858826%, 56.079102%, 56.079102%)" d="M 290.269531 401.824219 C 284.316406 401.824219 281.347656 401.824219 275.402344 401.824219 C 274.328125 399.003906 273.796875 397.589844 272.726562 394.769531 C 278.464844 394.769531 281.332031 394.769531 287.066406 394.769531 C 288.347656 397.589844 288.988281 399.003906 290.269531 401.824219 " fill-opacity="1" fill-rule="nonzero"/><path fill="rgb(56.858826%, 56.079102%, 56.079102%)" d="M 294.535156 411.226562 C 288.300781 411.226562 285.183594 411.226562 278.957031 411.226562 C 277.890625 408.40625 277.355469 406.992188 276.289062 404.175781 C 282.304688 404.175781 285.316406 404.175781 291.335938 404.175781 C 292.617188 406.992188 293.253906 408.40625 294.535156 411.226562 " fill-opacity="1" fill-rule="nonzero"/><path fill="rgb(56.858826%, 56.079102%, 56.079102%)" d="M 297.507812 383.011719 C 292.128906 383.011719 289.441406 383.011719 284.058594 383.011719 C 282.742188 380.191406 282.078125 378.773438 280.765625 375.953125 C 285.933594 375.953125 288.515625 375.953125 293.691406 375.953125 C 295.214844 378.773438 295.984375 380.191406 297.507812 383.011719 " fill-opacity="1" fill-rule="nonzero"/><path fill="rgb(56.858826%, 56.079102%, 56.079102%)" d="M 302.601562 392.414062 C 296.9375 392.414062 294.109375 392.414062 288.441406 392.414062 C 287.128906 389.59375 286.464844 388.179688 285.152344 385.363281 C 290.601562 385.363281 293.328125 385.363281 298.785156 385.363281 C 300.308594 388.183594 301.078125 389.59375 302.601562 392.414062 " fill-opacity="1" fill-rule="nonzero"/><path fill="rgb(56.858826%, 56.079102%, 56.079102%)" d="M 307.707031 401.824219 C 301.753906 401.824219 298.78125 401.824219 292.828125 401.824219 C 291.515625 399.003906 290.855469 397.589844 289.542969 394.769531 C 295.277344 394.769531 298.144531 394.769531 303.878906 394.769531 C 305.40625 397.589844 306.171875 399.003906 307.707031 401.824219 " fill-opacity="1" fill-rule="nonzero"/><path fill="rgb(56.858826%, 56.079102%, 56.079102%)" d="M 312.792969 411.226562 C 306.566406 411.226562 303.449219 411.226562 297.21875 411.226562 C 295.902344 408.40625 295.246094 406.992188 293.925781 404.175781 C 299.949219 404.175781 302.957031 404.175781 308.976562 404.175781 C 310.5 406.992188 311.269531 408.40625 312.792969 411.226562 " fill-opacity="1" fill-rule="nonzero"/><path fill="rgb(56.858826%, 56.079102%, 56.079102%)" d="M 313.285156 383.011719 C 307.902344 383.011719 305.210938 383.011719 299.828125 383.011719 C 298.265625 380.191406 297.484375 378.773438 295.917969 375.953125 C 301.085938 375.953125 303.671875 375.953125 308.839844 375.953125 C 310.621094 378.773438 311.507812 380.191406 313.285156 383.011719 " fill-opacity="1" fill-rule="nonzero"/><path fill="rgb(56.858826%, 56.079102%, 56.079102%)" d="M 319.207031 392.414062 C 313.542969 392.414062 310.714844 392.414062 305.050781 392.414062 C 303.484375 389.59375 302.695312 388.183594 301.132812 385.363281 C 306.585938 385.363281 309.316406 385.363281 314.765625 385.363281 C 316.542969 388.183594 317.429688 389.59375 319.207031 392.414062 " fill-opacity="1" fill-rule="nonzero"/><path fill="rgb(56.858826%, 56.079102%, 56.079102%)" d="M 325.132812 401.824219 C 319.183594 401.824219 316.210938 401.824219 310.265625 401.824219 C 308.699219 399.003906 307.917969 397.589844 306.355469 394.769531 C 312.089844 394.769531 314.957031 394.769531 320.6875 394.769531 C 322.46875 397.589844 323.359375 399.003906 325.132812 401.824219 " fill-opacity="1" fill-rule="nonzero"/><path fill="rgb(56.858826%, 56.079102%, 56.079102%)" d="M 331.054688 411.226562 C 324.828125 411.226562 321.710938 411.226562 315.480469 411.226562 C 313.914062 408.40625 313.132812 406.992188 311.566406 404.175781 C 317.585938 404.175781 320.59375 404.175781 326.609375 404.175781 C 328.390625 406.992188 329.277344 408.40625 331.054688 411.226562 " fill-opacity="1" fill-rule="nonzero"/><path fill="rgb(56.858826%, 56.079102%, 56.079102%)" d="M 329.058594 383.011719 C 323.671875 383.011719 320.980469 383.011719 315.605469 383.011719 C 313.789062 380.191406 312.882812 378.773438 311.066406 375.953125 C 316.242188 375.953125 318.824219 375.953125 323.992188 375.953125 C 326.023438 378.773438 327.035156 380.191406 329.058594 383.011719 " fill-opacity="1" fill-rule="nonzero"/><path fill="rgb(56.858826%, 56.079102%, 56.079102%)" d="M 335.808594 392.414062 C 330.144531 392.414062 327.3125 392.414062 321.644531 392.414062 C 319.832031 389.59375 318.921875 388.183594 317.109375 385.363281 C 322.566406 385.363281 325.292969 385.363281 330.75 385.363281 C 332.773438 388.183594 333.785156 389.59375 335.808594 392.414062 " fill-opacity="1" fill-rule="nonzero"/><path fill="rgb(56.858826%, 56.079102%, 56.079102%)" d="M 342.566406 401.824219 C 336.613281 401.824219 333.640625 401.824219 327.695312 401.824219 C 325.875 399.003906 324.972656 397.589844 323.160156 394.769531 C 328.898438 394.769531 331.765625 394.769531 337.5 394.769531 C 339.527344 397.589844 340.539062 399.003906 342.566406 401.824219 " fill-opacity="1" fill-rule="nonzero"/><path fill="rgb(56.858826%, 56.079102%, 56.079102%)" d="M 349.316406 411.226562 C 343.082031 411.226562 339.972656 411.226562 333.734375 411.226562 C 331.925781 408.40625 331.015625 406.992188 329.199219 404.175781 C 335.222656 404.175781 338.234375 404.175781 344.253906 404.175781 C 346.277344 406.992188 347.292969 408.40625 349.316406 411.226562 " fill-opacity="1" fill-rule="nonzero"/><path fill="rgb(56.858826%, 56.079102%, 56.079102%)" d="M 344.828125 383.011719 C 339.449219 383.011719 336.753906 383.011719 331.375 383.011719 C 329.3125 380.191406 328.28125 378.773438 326.21875 375.953125 C 331.390625 375.953125 333.972656 375.953125 339.148438 375.953125 C 341.421875 378.773438 342.554688 380.191406 344.828125 383.011719 " fill-opacity="1" fill-rule="nonzero"/><path fill="rgb(56.858826%, 56.079102%, 56.079102%)" d="M 352.414062 392.414062 C 346.746094 392.414062 343.914062 392.414062 338.25 392.414062 C 336.191406 389.59375 335.15625 388.183594 333.097656 385.363281 C 338.550781 385.363281 341.273438 385.363281 346.726562 385.363281 C 349 388.183594 350.140625 389.59375 352.414062 392.414062 " fill-opacity="1" fill-rule="nonzero"/><path fill="rgb(56.858826%, 56.079102%, 56.079102%)" d="M 359.992188 401.824219 C 354.046875 401.824219 351.070312 401.824219 345.125 401.824219 C 343.0625 399.003906 342.03125 397.589844 339.972656 394.769531 C 345.703125 394.769531 348.570312 394.769531 354.308594 394.769531 C 356.585938 397.589844 357.71875 399.003906 359.992188 401.824219 " fill-opacity="1" fill-rule="nonzero"/><path fill="rgb(56.858826%, 56.079102%, 56.079102%)" d="M 367.570312 411.226562 C 361.34375 411.226562 358.226562 411.226562 351.996094 411.226562 C 349.9375 408.40625 348.902344 406.992188 346.84375 404.175781 C 352.859375 404.175781 355.867188 404.175781 361.882812 404.175781 C 364.164062 406.992188 365.296875 408.40625 367.570312 411.226562 " fill-opacity="1" fill-rule="nonzero"/><g clip-path="url(#id3)"><path fill="rgb(9.799194%, 17.248535%, 21.569824%)" d="M 1228.113281 426.105469 L 1202.996094 390.09375 C 1199.128906 384.546875 1187.015625 380.054688 1175.945312 380.054688 L 894.828125 380.054688 C 883.757812 380.054688 871.644531 384.546875 867.777344 390.09375 L 842.660156 426.105469 L 1228.113281 426.105469 " fill-opacity="1" fill-rule="nonzero"/></g><g clip-path="url(#id4)"><path fill="rgb(73.329163%, 72.938538%, 72.938538%)" d="M 842.851562 426.105469 C 841.789062 435.253906 848.402344 442.136719 859.160156 442.136719 L 1211.613281 442.136719 C 1222.371094 442.136719 1228.984375 435.253906 1227.917969 426.105469 L 842.851562 426.105469 " fill-opacity="1" fill-rule="nonzero"/></g><g clip-path="url(#id5)"><path fill="rgb(47.44873%, 46.669006%, 46.669006%)" d="M 865.425781 438.265625 C 842.738281 438.265625 842.851562 426.105469 842.851562 426.105469 C 841.789062 435.253906 848.402344 442.136719 859.160156 442.136719 L 1211.613281 442.136719 C 1216.765625 442.136719 1220.890625 440.507812 1223.71875 437.839844 C 1223.71875 437.839844 868.820312 438.265625 865.425781 438.265625 " fill-opacity="1" fill-rule="nonzero"/></g><g clip-path="url(#id6)"><path fill="rgb(9.799194%, 17.248535%, 21.569824%)" d="M 1175.386719 165.484375 L 895.386719 165.484375 C 884.3125 165.484375 875.335938 174.472656 875.335938 185.566406 L 875.335938 357.132812 C 875.335938 368.222656 884.3125 377.214844 895.386719 377.214844 L 1175.386719 377.214844 C 1186.460938 377.214844 1195.4375 368.222656 1195.4375 357.132812 L 1195.4375 185.566406 C 1195.4375 174.472656 1186.460938 165.484375 1175.386719 165.484375 " fill-opacity="1" fill-rule="nonzero"/></g><g clip-path="url(#id7)"><path fill="rgb(5.488586%, 9.799194%, 12.159729%)" d="M 880.160156 361.832031 L 880.160156 190.265625 C 880.160156 179.175781 889.136719 170.183594 900.214844 170.183594 L 1180.214844 170.183594 C 1184.359375 170.183594 1188.210938 171.445312 1191.414062 173.609375 C 1187.757812 168.703125 1181.964844 165.484375 1175.386719 165.484375 L 895.386719 165.484375 C 884.3125 165.484375 875.335938 174.472656 875.335938 185.566406 L 875.335938 357.132812 C 875.335938 364.070312 878.847656 370.183594 884.191406 373.792969 C 881.691406 370.441406 880.160156 366.332031 880.160156 361.832031 " fill-opacity="1" fill-rule="nonzero"/></g><path fill="rgb(36.079407%, 78.819275%, 85.099792%)" d="M 1182.136719 357.078125 L 888.632812 357.078125 L 888.632812 189.09375 L 1182.136719 189.09375 L 1182.136719 357.078125 " fill-opacity="1" fill-rule="nonzero"/><path fill="rgb(29.798889%, 64.709473%, 70.199585%)" d="M 914.066406 319.335938 C 951.589844 303.847656 990.855469 293.101562 1030.714844 285.597656 C 1079.640625 276.378906 1129.3125 273.550781 1178.96875 274.601562 L 1178.96875 191.816406 L 891.796875 191.816406 L 891.796875 328.746094 C 899.414062 325.351562 906.96875 322.265625 914.066406 319.335938 " fill-opacity="1" fill-rule="nonzero"/><path fill="rgb(5.488586%, 9.799194%, 12.159729%)" d="M 990.476562 377.335938 C 990.476562 379.867188 987.40625 381.917969 983.621094 381.917969 L 932.976562 381.917969 C 929.191406 381.917969 926.121094 379.867188 926.121094 377.335938 C 926.121094 374.804688 929.191406 372.753906 932.976562 372.753906 L 983.621094 372.753906 C 987.40625 372.753906 990.476562 374.804688 990.476562 377.335938 " fill-opacity="1" fill-rule="nonzero"/><path fill="rgb(5.488586%, 9.799194%, 12.159729%)" d="M 1144.644531 377.335938 C 1144.644531 379.867188 1141.582031 381.917969 1137.792969 381.917969 L 1087.144531 381.917969 C 1083.363281 381.917969 1080.292969 379.867188 1080.292969 377.335938 C 1080.292969 374.804688 1083.363281 372.753906 1087.144531 372.753906 L 1137.792969 372.753906 C 1141.582031 372.753906 1144.644531 374.804688 1144.644531 377.335938 " fill-opacity="1" fill-rule="nonzero"/><path fill="rgb(9.01947%, 15.689087%, 19.60907%)" d="M 895.265625 394.433594 L 885.074219 394.433594 C 883.582031 394.433594 882.367188 393.800781 882.367188 393.027344 L 882.367188 391.074219 C 882.367188 390.296875 883.582031 389.667969 885.074219 389.667969 L 895.265625 389.667969 C 896.765625 389.667969 897.976562 390.296875 897.976562 391.074219 L 897.976562 393.027344 C 897.976562 393.800781 896.765625 394.433594 895.265625 394.433594 " fill-opacity="1" fill-rule="nonzero"/><path fill="rgb(9.01947%, 15.689087%, 19.60907%)" d="M 919.605469 394.433594 L 909.417969 394.433594 C 907.917969 394.433594 906.703125 393.800781 906.703125 393.027344 L 906.703125 391.074219 C 906.703125 390.296875 907.917969 389.667969 909.417969 389.667969 L 919.605469 389.667969 C 921.105469 389.667969 922.320312 390.296875 922.320312 391.074219 L 922.320312 393.027344 C 922.320312 393.800781 921.105469 394.433594 919.605469 394.433594 " fill-opacity="1" fill-rule="nonzero"/><path fill="rgb(9.01947%, 15.689087%, 19.60907%)" d="M 943.941406 394.433594 L 933.757812 394.433594 C 932.261719 394.433594 931.042969 393.800781 931.042969 393.027344 L 931.042969 391.074219 C 931.042969 390.296875 932.261719 389.667969 933.757812 389.667969 L 943.941406 389.667969 C 945.441406 389.667969 946.660156 390.296875 946.660156 391.074219 L 946.660156 393.027344 C 946.660156 393.800781 945.441406 394.433594 943.941406 394.433594 " fill-opacity="1" fill-rule="nonzero"/><path fill="rgb(9.01947%, 15.689087%, 19.60907%)" d="M 968.28125 394.433594 L 958.097656 394.433594 C 956.597656 394.433594 955.378906 393.800781 955.378906 393.027344 L 955.378906 391.074219 C 955.378906 390.296875 956.597656 389.667969 958.097656 389.667969 L 968.28125 389.667969 C 969.785156 389.667969 970.996094 390.296875 970.996094 391.074219 L 970.996094 393.027344 C 970.996094 393.800781 969.785156 394.433594 968.28125 394.433594 " fill-opacity="1" fill-rule="nonzero"/><path fill="rgb(9.01947%, 15.689087%, 19.60907%)" d="M 992.621094 394.433594 L 982.433594 394.433594 C 980.9375 394.433594 979.71875 393.800781 979.71875 393.027344 L 979.71875 391.074219 C 979.71875 390.296875 980.9375 389.667969 982.433594 389.667969 L 992.621094 389.667969 C 994.121094 389.667969 995.335938 390.296875 995.335938 391.074219 L 995.335938 393.027344 C 995.335938 393.800781 994.121094 394.433594 992.621094 394.433594 " fill-opacity="1" fill-rule="nonzero"/><path fill="rgb(9.01947%, 15.689087%, 19.60907%)" d="M 1016.964844 394.433594 L 1006.773438 394.433594 C 1005.273438 394.433594 1004.0625 393.800781 1004.0625 393.027344 L 1004.0625 391.074219 C 1004.0625 390.296875 1005.273438 389.667969 1006.773438 389.667969 L 1016.964844 389.667969 C 1018.460938 389.667969 1019.675781 390.296875 1019.675781 391.074219 L 1019.675781 393.027344 C 1019.675781 393.800781 1018.460938 394.433594 1016.964844 394.433594 " fill-opacity="1" fill-rule="nonzero"/><path fill="rgb(9.01947%, 15.689087%, 19.60907%)" d="M 1041.300781 394.433594 L 1031.109375 394.433594 C 1029.613281 394.433594 1028.402344 393.800781 1028.402344 393.027344 L 1028.402344 391.074219 C 1028.402344 390.296875 1029.613281 389.667969 1031.109375 389.667969 L 1041.300781 389.667969 C 1042.796875 389.667969 1044.011719 390.296875 1044.011719 391.074219 L 1044.011719 393.027344 C 1044.011719 393.800781 1042.796875 394.433594 1041.300781 394.433594 " fill-opacity="1" fill-rule="nonzero"/><path fill="rgb(9.01947%, 15.689087%, 19.60907%)" d="M 1065.640625 394.433594 L 1055.453125 394.433594 C 1053.953125 394.433594 1052.738281 393.800781 1052.738281 393.027344 L 1052.738281 391.074219 C 1052.738281 390.296875 1053.953125 389.667969 1055.453125 389.667969 L 1065.640625 389.667969 C 1067.136719 389.667969 1068.355469 390.296875 1068.355469 391.074219 L 1068.355469 393.027344 C 1068.355469 393.800781 1067.136719 394.433594 1065.640625 394.433594 " fill-opacity="1" fill-rule="nonzero"/><path fill="rgb(9.01947%, 15.689087%, 19.60907%)" d="M 1089.976562 394.433594 L 1079.792969 394.433594 C 1078.296875 394.433594 1077.078125 393.800781 1077.078125 393.027344 L 1077.078125 391.074219 C 1077.078125 390.296875 1078.296875 389.667969 1079.792969 389.667969 L 1089.976562 389.667969 C 1091.476562 389.667969 1092.691406 390.296875 1092.691406 391.074219 L 1092.691406 393.027344 C 1092.691406 393.800781 1091.476562 394.433594 1089.976562 394.433594 " fill-opacity="1" fill-rule="nonzero"/><path fill="rgb(9.01947%, 15.689087%, 19.60907%)" d="M 1114.316406 394.433594 L 1104.132812 394.433594 C 1102.636719 394.433594 1101.414062 393.800781 1101.414062 393.027344 L 1101.414062 391.074219 C 1101.414062 390.296875 1102.636719 389.667969 1104.132812 389.667969 L 1114.316406 389.667969 C 1115.820312 389.667969 1117.03125 390.296875 1117.03125 391.074219 L 1117.03125 393.027344 C 1117.03125 393.800781 1115.820312 394.433594 1114.316406 394.433594 " fill-opacity="1" fill-rule="nonzero"/><path fill="rgb(9.01947%, 15.689087%, 19.60907%)" d="M 1138.652344 394.433594 L 1128.472656 394.433594 C 1126.972656 394.433594 1125.753906 393.800781 1125.753906 393.027344 L 1125.753906 391.074219 C 1125.753906 390.296875 1126.972656 389.667969 1128.472656 389.667969 L 1138.652344 389.667969 C 1140.15625 389.667969 1141.371094 390.296875 1141.371094 391.074219 L 1141.371094 393.027344 C 1141.371094 393.800781 1140.15625 394.433594 1138.652344 394.433594 " fill-opacity="1" fill-rule="nonzero"/><path fill="rgb(9.01947%, 15.689087%, 19.60907%)" d="M 1162.992188 394.433594 L 1152.808594 394.433594 C 1151.3125 394.433594 1150.097656 393.800781 1150.097656 393.027344 L 1150.097656 391.074219 C 1150.097656 390.296875 1151.3125 389.667969 1152.808594 389.667969 L 1162.992188 389.667969 C 1164.496094 389.667969 1165.710938 390.296875 1165.710938 391.074219 L 1165.710938 393.027344 C 1165.710938 393.800781 1164.496094 394.433594 1162.992188 394.433594 " fill-opacity="1" fill-rule="nonzero"/><path fill="rgb(9.01947%, 15.689087%, 19.60907%)" d="M 1187.335938 394.433594 L 1177.148438 394.433594 C 1175.648438 394.433594 1174.4375 393.800781 1174.4375 393.027344 L 1174.4375 391.074219 C 1174.4375 390.296875 1175.648438 389.667969 1177.148438 389.667969 L 1187.335938 389.667969 C 1188.832031 389.667969 1190.046875 390.296875 1190.046875 391.074219 L 1190.046875 393.027344 C 1190.046875 393.800781 1188.832031 394.433594 1187.335938 394.433594 " fill-opacity="1" fill-rule="nonzero"/><path fill="rgb(9.01947%, 15.689087%, 19.60907%)" d="M 886.582031 403.425781 L 875.773438 403.425781 C 874.183594 403.425781 872.890625 402.753906 872.890625 401.933594 L 872.890625 399.863281 C 872.890625 399.039062 874.183594 398.363281 875.773438 398.363281 L 886.582031 398.363281 C 888.175781 398.363281 889.46875 399.039062 889.46875 399.863281 L 889.46875 401.933594 C 889.46875 402.753906 888.175781 403.425781 886.582031 403.425781 " fill-opacity="1" fill-rule="nonzero"/><path fill="rgb(9.01947%, 15.689087%, 19.60907%)" d="M 912.425781 403.425781 L 901.609375 403.425781 C 900.023438 403.425781 898.726562 402.753906 898.726562 401.933594 L 898.726562 399.863281 C 898.726562 399.039062 900.023438 398.363281 901.609375 398.363281 L 912.425781 398.363281 C 914.019531 398.363281 915.304688 399.039062 915.304688 399.863281 L 915.304688 401.933594 C 915.304688 402.753906 914.019531 403.425781 912.425781 403.425781 " fill-opacity="1" fill-rule="nonzero"/><path fill="rgb(9.01947%, 15.689087%, 19.60907%)" d="M 938.261719 403.425781 L 927.445312 403.425781 C 925.855469 403.425781 924.5625 402.753906 924.5625 401.933594 L 924.5625 399.863281 C 924.5625 399.039062 925.855469 398.363281 927.445312 398.363281 L 938.261719 398.363281 C 939.851562 398.363281 941.144531 399.039062 941.144531 399.863281 L 941.144531 401.933594 C 941.144531 402.753906 939.851562 403.425781 938.261719 403.425781 " fill-opacity="1" fill-rule="nonzero"/><path fill="rgb(9.01947%, 15.689087%, 19.60907%)" d="M 964.101562 403.425781 L 953.285156 403.425781 C 951.699219 403.425781 950.40625 402.753906 950.40625 401.933594 L 950.40625 399.863281 C 950.40625 399.039062 951.699219 398.363281 953.285156 398.363281 L 964.101562 398.363281 C 965.691406 398.363281 966.980469 399.039062 966.980469 399.863281 L 966.980469 401.933594 C 966.980469 402.753906 965.691406 403.425781 964.101562 403.425781 " fill-opacity="1" fill-rule="nonzero"/><path fill="rgb(9.01947%, 15.689087%, 19.60907%)" d="M 989.9375 403.425781 L 979.121094 403.425781 C 977.535156 403.425781 976.246094 402.753906 976.246094 401.933594 L 976.246094 399.863281 C 976.246094 399.039062 977.535156 398.363281 979.121094 398.363281 L 989.9375 398.363281 C 991.527344 398.363281 992.820312 399.039062 992.820312 399.863281 L 992.820312 401.933594 C 992.820312 402.753906 991.527344 403.425781 989.9375 403.425781 " fill-opacity="1" fill-rule="nonzero"/><path fill="rgb(9.01947%, 15.689087%, 19.60907%)" d="M 1015.777344 403.425781 L 1004.960938 403.425781 C 1003.367188 403.425781 1002.082031 402.753906 1002.082031 401.933594 L 1002.082031 399.863281 C 1002.082031 399.039062 1003.367188 398.363281 1004.960938 398.363281 L 1015.777344 398.363281 C 1017.371094 398.363281 1018.65625 399.039062 1018.65625 399.863281 L 1018.65625 401.933594 C 1018.65625 402.753906 1017.371094 403.425781 1015.777344 403.425781 " fill-opacity="1" fill-rule="nonzero"/><path fill="rgb(9.01947%, 15.689087%, 19.60907%)" d="M 1041.617188 403.425781 L 1030.796875 403.425781 C 1029.207031 403.425781 1027.921875 402.753906 1027.921875 401.933594 L 1027.921875 399.863281 C 1027.921875 399.039062 1029.207031 398.363281 1030.796875 398.363281 L 1041.617188 398.363281 C 1043.203125 398.363281 1044.496094 399.039062 1044.496094 399.863281 L 1044.496094 401.933594 C 1044.496094 402.753906 1043.203125 403.425781 1041.617188 403.425781 " fill-opacity="1" fill-rule="nonzero"/><path fill="rgb(9.01947%, 15.689087%, 19.60907%)" d="M 1067.449219 403.425781 L 1056.640625 403.425781 C 1055.050781 403.425781 1053.757812 402.753906 1053.757812 401.933594 L 1053.757812 399.863281 C 1053.757812 399.039062 1055.050781 398.363281 1056.640625 398.363281 L 1067.449219 398.363281 C 1069.042969 398.363281 1070.332031 399.039062 1070.332031 399.863281 L 1070.332031 401.933594 C 1070.332031 402.753906 1069.042969 403.425781 1067.449219 403.425781 " fill-opacity="1" fill-rule="nonzero"/><path fill="rgb(9.01947%, 15.689087%, 19.60907%)" d="M 1093.289062 403.425781 L 1082.472656 403.425781 C 1080.886719 403.425781 1079.59375 402.753906 1079.59375 401.933594 L 1079.59375 399.863281 C 1079.59375 399.039062 1080.886719 398.363281 1082.472656 398.363281 L 1093.289062 398.363281 C 1094.878906 398.363281 1096.171875 399.039062 1096.171875 399.863281 L 1096.171875 401.933594 C 1096.171875 402.753906 1094.878906 403.425781 1093.289062 403.425781 " fill-opacity="1" fill-rule="nonzero"/><path fill="rgb(9.01947%, 15.689087%, 19.60907%)" d="M 1119.125 403.425781 L 1108.316406 403.425781 C 1106.722656 403.425781 1105.433594 402.753906 1105.433594 401.933594 L 1105.433594 399.863281 C 1105.433594 399.039062 1106.722656 398.363281 1108.316406 398.363281 L 1119.125 398.363281 C 1120.722656 398.363281 1122.011719 399.039062 1122.011719 399.863281 L 1122.011719 401.933594 C 1122.011719 402.753906 1120.722656 403.425781 1119.125 403.425781 " fill-opacity="1" fill-rule="nonzero"/><path fill="rgb(9.01947%, 15.689087%, 19.60907%)" d="M 1144.964844 403.425781 L 1134.152344 403.425781 C 1132.5625 403.425781 1131.269531 402.753906 1131.269531 401.933594 L 1131.269531 399.863281 C 1131.269531 399.039062 1132.5625 398.363281 1134.152344 398.363281 L 1144.964844 398.363281 C 1146.558594 398.363281 1147.847656 399.039062 1147.847656 399.863281 L 1147.847656 401.933594 C 1147.847656 402.753906 1146.558594 403.425781 1144.964844 403.425781 " fill-opacity="1" fill-rule="nonzero"/><path fill="rgb(9.01947%, 15.689087%, 19.60907%)" d="M 1170.800781 403.425781 L 1159.992188 403.425781 C 1158.398438 403.425781 1157.109375 402.753906 1157.109375 401.933594 L 1157.109375 399.863281 C 1157.109375 399.039062 1158.398438 398.363281 1159.992188 398.363281 L 1170.800781 398.363281 C 1172.398438 398.363281 1173.683594 399.039062 1173.683594 399.863281 L 1173.683594 401.933594 C 1173.683594 402.753906 1172.398438 403.425781 1170.800781 403.425781 " fill-opacity="1" fill-rule="nonzero"/><path fill="rgb(9.01947%, 15.689087%, 19.60907%)" d="M 1196.640625 403.425781 L 1185.828125 403.425781 C 1184.238281 403.425781 1182.945312 402.753906 1182.945312 401.933594 L 1182.945312 399.863281 C 1182.945312 399.039062 1184.238281 398.363281 1185.828125 398.363281 L 1196.640625 398.363281 C 1198.230469 398.363281 1199.523438 399.039062 1199.523438 399.863281 L 1199.523438 401.933594 C 1199.523438 402.753906 1198.230469 403.425781 1196.640625 403.425781 " fill-opacity="1" fill-rule="nonzero"/><path fill="rgb(9.01947%, 15.689087%, 19.60907%)" d="M 876.902344 413.015625 L 865.390625 413.015625 C 863.695312 413.015625 862.324219 412.347656 862.324219 411.523438 L 862.324219 409.449219 C 862.324219 408.625 863.695312 407.953125 865.390625 407.953125 L 876.902344 407.953125 C 878.597656 407.953125 879.972656 408.625 879.972656 409.449219 L 879.972656 411.523438 C 879.972656 412.347656 878.597656 413.015625 876.902344 413.015625 " fill-opacity="1" fill-rule="nonzero"/><path fill="rgb(9.01947%, 15.689087%, 19.60907%)" d="M 904.410156 413.015625 L 892.898438 413.015625 C 891.203125 413.015625 889.832031 412.347656 889.832031 411.523438 L 889.832031 409.449219 C 889.832031 408.625 891.203125 407.953125 892.898438 407.953125 L 904.410156 407.953125 C 906.109375 407.953125 907.480469 408.625 907.480469 409.449219 L 907.480469 411.523438 C 907.480469 412.347656 906.109375 413.015625 904.410156 413.015625 " fill-opacity="1" fill-rule="nonzero"/><path fill="rgb(9.01947%, 15.689087%, 19.60907%)" d="M 931.917969 413.015625 L 920.410156 413.015625 C 918.714844 413.015625 917.339844 412.347656 917.339844 411.523438 L 917.339844 409.449219 C 917.339844 408.625 918.714844 407.953125 920.410156 407.953125 L 931.917969 407.953125 C 933.617188 407.953125 934.992188 408.625 934.992188 409.449219 L 934.992188 411.523438 C 934.992188 412.347656 933.617188 413.015625 931.917969 413.015625 " fill-opacity="1" fill-rule="nonzero"/><path fill="rgb(9.01947%, 15.689087%, 19.60907%)" d="M 959.4375 413.015625 L 947.917969 413.015625 C 946.222656 413.015625 944.855469 412.347656 944.855469 411.523438 L 944.855469 409.449219 C 944.855469 408.625 946.222656 407.953125 947.917969 407.953125 L 959.4375 407.953125 C 961.128906 407.953125 962.5 408.625 962.5 409.449219 L 962.5 411.523438 C 962.5 412.347656 961.128906 413.015625 959.4375 413.015625 " fill-opacity="1" fill-rule="nonzero"/><path fill="rgb(9.01947%, 15.689087%, 19.60907%)" d="M 986.945312 413.015625 L 975.429688 413.015625 C 973.738281 413.015625 972.363281 412.347656 972.363281 411.523438 L 972.363281 409.449219 C 972.363281 408.625 973.738281 407.953125 975.429688 407.953125 L 986.945312 407.953125 C 988.636719 407.953125 990.011719 408.625 990.011719 409.449219 L 990.011719 411.523438 C 990.011719 412.347656 988.636719 413.015625 986.945312 413.015625 " fill-opacity="1" fill-rule="nonzero"/><path fill="rgb(9.01947%, 15.689087%, 19.60907%)" d="M 1014.457031 413.015625 L 1002.941406 413.015625 C 1001.246094 413.015625 999.871094 412.347656 999.871094 411.523438 L 999.871094 409.449219 C 999.871094 408.625 1001.246094 407.953125 1002.941406 407.953125 L 1014.457031 407.953125 C 1016.148438 407.953125 1017.519531 408.625 1017.519531 409.449219 L 1017.519531 411.523438 C 1017.519531 412.347656 1016.148438 413.015625 1014.457031 413.015625 " fill-opacity="1" fill-rule="nonzero"/><path fill="rgb(9.01947%, 15.689087%, 19.60907%)" d="M 1041.964844 413.015625 L 1030.449219 413.015625 C 1028.757812 413.015625 1027.382812 412.347656 1027.382812 411.523438 L 1027.382812 409.449219 C 1027.382812 408.625 1028.757812 407.953125 1030.449219 407.953125 L 1041.964844 407.953125 C 1043.65625 407.953125 1045.03125 408.625 1045.03125 409.449219 L 1045.03125 411.523438 C 1045.03125 412.347656 1043.65625 413.015625 1041.964844 413.015625 " fill-opacity="1" fill-rule="nonzero"/><path fill="rgb(9.01947%, 15.689087%, 19.60907%)" d="M 1069.476562 413.015625 L 1057.957031 413.015625 C 1056.269531 413.015625 1054.894531 412.347656 1054.894531 411.523438 L 1054.894531 409.449219 C 1054.894531 408.625 1056.269531 407.953125 1057.957031 407.953125 L 1069.476562 407.953125 C 1071.171875 407.953125 1072.539062 408.625 1072.539062 409.449219 L 1072.539062 411.523438 C 1072.539062 412.347656 1071.171875 413.015625 1069.476562 413.015625 " fill-opacity="1" fill-rule="nonzero"/><path fill="rgb(9.01947%, 15.689087%, 19.60907%)" d="M 1096.984375 413.015625 L 1085.472656 413.015625 C 1083.777344 413.015625 1082.402344 412.347656 1082.402344 411.523438 L 1082.402344 409.449219 C 1082.402344 408.625 1083.777344 407.953125 1085.472656 407.953125 L 1096.984375 407.953125 C 1098.679688 407.953125 1100.054688 408.625 1100.054688 409.449219 L 1100.054688 411.523438 C 1100.054688 412.347656 1098.679688 413.015625 1096.984375 413.015625 " fill-opacity="1" fill-rule="nonzero"/><path fill="rgb(9.01947%, 15.689087%, 19.60907%)" d="M 1124.496094 413.015625 L 1112.980469 413.015625 C 1111.289062 413.015625 1109.914062 412.347656 1109.914062 411.523438 L 1109.914062 409.449219 C 1109.914062 408.625 1111.289062 407.953125 1112.980469 407.953125 L 1124.496094 407.953125 C 1126.191406 407.953125 1127.566406 408.625 1127.566406 409.449219 L 1127.566406 411.523438 C 1127.566406 412.347656 1126.191406 413.015625 1124.496094 413.015625 " fill-opacity="1" fill-rule="nonzero"/><path fill="rgb(9.01947%, 15.689087%, 19.60907%)" d="M 1152.003906 413.015625 L 1140.492188 413.015625 C 1138.796875 413.015625 1137.421875 412.347656 1137.421875 411.523438 L 1137.421875 409.449219 C 1137.421875 408.625 1138.796875 407.953125 1140.492188 407.953125 L 1152.003906 407.953125 C 1153.699219 407.953125 1155.074219 408.625 1155.074219 409.449219 L 1155.074219 411.523438 C 1155.074219 412.347656 1153.699219 413.015625 1152.003906 413.015625 " fill-opacity="1" fill-rule="nonzero"/><path fill="rgb(9.01947%, 15.689087%, 19.60907%)" d="M 1179.515625 413.015625 L 1168.003906 413.015625 C 1166.304688 413.015625 1164.933594 412.347656 1164.933594 411.523438 L 1164.933594 409.449219 C 1164.933594 408.625 1166.304688 407.953125 1168.003906 407.953125 L 1179.515625 407.953125 C 1181.210938 407.953125 1182.585938 408.625 1182.585938 409.449219 L 1182.585938 411.523438 C 1182.585938 412.347656 1181.210938 413.015625 1179.515625 413.015625 " fill-opacity="1" fill-rule="nonzero"/><path fill="rgb(9.01947%, 15.689087%, 19.60907%)" d="M 1207.027344 413.015625 L 1195.511719 413.015625 C 1193.820312 413.015625 1192.445312 412.347656 1192.445312 411.523438 L 1192.445312 409.449219 C 1192.445312 408.625 1193.820312 407.953125 1195.511719 407.953125 L 1207.027344 407.953125 C 1208.71875 407.953125 1210.09375 408.625 1210.09375 409.449219 L 1210.09375 411.523438 C 1210.09375 412.347656 1208.71875 413.015625 1207.027344 413.015625 " fill-opacity="1" fill-rule="nonzero"/><path fill="rgb(9.01947%, 15.689087%, 19.60907%)" d="M 1070.15625 422.054688 L 1002.253906 422.054688 C 1000.5625 422.054688 999.191406 421.304688 999.191406 420.378906 L 999.191406 418.058594 C 999.191406 417.128906 1000.5625 416.375 1002.253906 416.375 L 1070.15625 416.375 C 1071.851562 416.375 1073.222656 417.128906 1073.222656 418.058594 L 1073.222656 420.378906 C 1073.222656 421.304688 1071.851562 422.054688 1070.15625 422.054688 " fill-opacity="1" fill-rule="nonzero"/><path fill="rgb(82.749939%, 82.348633%, 82.348633%)" d="M 1040.214844 179.644531 C 1040.214844 182.3125 1038.054688 184.476562 1035.386719 184.476562 C 1032.71875 184.476562 1030.558594 182.3125 1030.558594 179.644531 C 1030.558594 176.96875 1032.71875 174.804688 1035.386719 174.804688 C 1038.054688 174.804688 1040.214844 176.96875 1040.214844 179.644531 " fill-opacity="1" fill-rule="nonzero"/><path fill="rgb(74.119568%, 73.728943%, 73.728943%)" d="M 1037.914062 179.644531 C 1037.914062 181.039062 1036.78125 182.171875 1035.386719 182.171875 C 1033.992188 182.171875 1032.859375 181.039062 1032.859375 179.644531 C 1032.859375 178.242188 1033.992188 177.109375 1035.386719 177.109375 C 1036.78125 177.109375 1037.914062 178.242188 1037.914062 179.644531 " fill-opacity="1" fill-rule="nonzero"/><path fill="rgb(16.468811%, 29.798889%, 37.249756%)" d="M 897.160156 392.203125 C 897.160156 392.976562 895.941406 393.613281 894.441406 393.613281 L 884.257812 393.613281 C 882.761719 393.613281 881.542969 392.976562 881.542969 392.203125 L 881.542969 390.253906 C 881.542969 389.476562 882.761719 388.84375 884.257812 388.84375 L 894.441406 388.84375 C 895.941406 388.84375 897.160156 389.476562 897.160156 390.253906 L 897.160156 392.203125 " fill-opacity="1" fill-rule="nonzero"/><path fill="rgb(16.468811%, 29.798889%, 37.249756%)" d="M 921.496094 392.203125 C 921.496094 392.976562 920.285156 393.613281 918.78125 393.613281 L 908.597656 393.613281 C 907.101562 393.613281 905.882812 392.976562 905.882812 392.203125 L 905.882812 390.253906 C 905.882812 389.476562 907.101562 388.84375 908.597656 388.84375 L 918.78125 388.84375 C 920.285156 388.84375 921.496094 389.476562 921.496094 390.253906 L 921.496094 392.203125 " fill-opacity="1" fill-rule="nonzero"/><path fill="rgb(16.468811%, 29.798889%, 37.249756%)" d="M 945.835938 392.203125 C 945.835938 392.976562 944.621094 393.613281 943.121094 393.613281 L 932.9375 393.613281 C 931.441406 393.613281 930.21875 392.976562 930.21875 392.203125 L 930.21875 390.253906 C 930.21875 389.476562 931.441406 388.84375 932.9375 388.84375 L 943.121094 388.84375 C 944.621094 388.84375 945.835938 389.476562 945.835938 390.253906 L 945.835938 392.203125 " fill-opacity="1" fill-rule="nonzero"/><path fill="rgb(16.468811%, 29.798889%, 37.249756%)" d="M 970.175781 392.203125 C 970.175781 392.976562 968.960938 393.613281 967.464844 393.613281 L 957.273438 393.613281 C 955.777344 393.613281 954.5625 392.976562 954.5625 392.203125 L 954.5625 390.253906 C 954.5625 389.476562 955.777344 388.84375 957.273438 388.84375 L 967.464844 388.84375 C 968.960938 388.84375 970.175781 389.476562 970.175781 390.253906 L 970.175781 392.203125 " fill-opacity="1" fill-rule="nonzero"/><path fill="rgb(16.468811%, 29.798889%, 37.249756%)" d="M 994.519531 392.203125 C 994.519531 392.976562 993.300781 393.613281 991.800781 393.613281 L 981.609375 393.613281 C 980.113281 393.613281 978.902344 392.976562 978.902344 392.203125 L 978.902344 390.253906 C 978.902344 389.476562 980.113281 388.84375 981.609375 388.84375 L 991.800781 388.84375 C 993.300781 388.84375 994.519531 389.476562 994.519531 390.253906 L 994.519531 392.203125 " fill-opacity="1" fill-rule="nonzero"/><path fill="rgb(16.468811%, 29.798889%, 37.249756%)" d="M 1018.855469 392.203125 C 1018.855469 392.976562 1017.640625 393.613281 1016.140625 393.613281 L 1005.953125 393.613281 C 1004.453125 393.613281 1003.238281 392.976562 1003.238281 392.203125 L 1003.238281 390.253906 C 1003.238281 389.476562 1004.453125 388.84375 1005.953125 388.84375 L 1016.140625 388.84375 C 1017.640625 388.84375 1018.855469 389.476562 1018.855469 390.253906 L 1018.855469 392.203125 " fill-opacity="1" fill-rule="nonzero"/><path fill="rgb(16.468811%, 29.798889%, 37.249756%)" d="M 1043.195312 392.203125 C 1043.195312 392.976562 1041.976562 393.613281 1040.480469 393.613281 L 1030.292969 393.613281 C 1028.792969 393.613281 1027.578125 392.976562 1027.578125 392.203125 L 1027.578125 390.253906 C 1027.578125 389.476562 1028.792969 388.84375 1030.292969 388.84375 L 1040.480469 388.84375 C 1041.976562 388.84375 1043.195312 389.476562 1043.195312 390.253906 L 1043.195312 392.203125 " fill-opacity="1" fill-rule="nonzero"/><path fill="rgb(16.468811%, 29.798889%, 37.249756%)" d="M 1067.53125 392.203125 C 1067.53125 392.976562 1066.320312 393.613281 1064.820312 393.613281 L 1054.632812 393.613281 C 1053.136719 393.613281 1051.914062 392.976562 1051.914062 392.203125 L 1051.914062 390.253906 C 1051.914062 389.476562 1053.136719 388.84375 1054.632812 388.84375 L 1064.820312 388.84375 C 1066.320312 388.84375 1067.53125 389.476562 1067.53125 390.253906 L 1067.53125 392.203125 " fill-opacity="1" fill-rule="nonzero"/><path fill="rgb(16.468811%, 29.798889%, 37.249756%)" d="M 1091.871094 392.203125 C 1091.871094 392.976562 1090.65625 393.613281 1089.15625 393.613281 L 1078.972656 393.613281 C 1077.472656 393.613281 1076.253906 392.976562 1076.253906 392.203125 L 1076.253906 390.253906 C 1076.253906 389.476562 1077.472656 388.84375 1078.972656 388.84375 L 1089.15625 388.84375 C 1090.65625 388.84375 1091.871094 389.476562 1091.871094 390.253906 L 1091.871094 392.203125 " fill-opacity="1" fill-rule="nonzero"/><path fill="rgb(16.468811%, 29.798889%, 37.249756%)" d="M 1116.210938 392.203125 C 1116.210938 392.976562 1114.996094 393.613281 1113.492188 393.613281 L 1103.308594 393.613281 C 1101.8125 393.613281 1100.597656 392.976562 1100.597656 392.203125 L 1100.597656 390.253906 C 1100.597656 389.476562 1101.8125 388.84375 1103.308594 388.84375 L 1113.492188 388.84375 C 1114.996094 388.84375 1116.210938 389.476562 1116.210938 390.253906 L 1116.210938 392.203125 " fill-opacity="1" fill-rule="nonzero"/><path fill="rgb(16.468811%, 29.798889%, 37.249756%)" d="M 1140.546875 392.203125 C 1140.546875 392.976562 1139.332031 393.613281 1137.839844 393.613281 L 1127.648438 393.613281 C 1126.148438 393.613281 1124.9375 392.976562 1124.9375 392.203125 L 1124.9375 390.253906 C 1124.9375 389.476562 1126.148438 388.84375 1127.648438 388.84375 L 1137.839844 388.84375 C 1139.332031 388.84375 1140.546875 389.476562 1140.546875 390.253906 L 1140.546875 392.203125 " fill-opacity="1" fill-rule="nonzero"/><path fill="rgb(16.468811%, 29.798889%, 37.249756%)" d="M 1164.890625 392.203125 C 1164.890625 392.976562 1163.671875 393.613281 1162.175781 393.613281 L 1151.992188 393.613281 C 1150.488281 393.613281 1149.273438 392.976562 1149.273438 392.203125 L 1149.273438 390.253906 C 1149.273438 389.476562 1150.488281 388.84375 1151.992188 388.84375 L 1162.175781 388.84375 C 1163.671875 388.84375 1164.890625 389.476562 1164.890625 390.253906 L 1164.890625 392.203125 " fill-opacity="1" fill-rule="nonzero"/><path fill="rgb(16.468811%, 29.798889%, 37.249756%)" d="M 1189.230469 392.203125 C 1189.230469 392.976562 1188.011719 393.613281 1186.511719 393.613281 L 1176.328125 393.613281 C 1174.824219 393.613281 1173.613281 392.976562 1173.613281 392.203125 L 1173.613281 390.253906 C 1173.613281 389.476562 1174.824219 388.84375 1176.328125 388.84375 L 1186.511719 388.84375 C 1188.011719 388.84375 1189.230469 389.476562 1189.230469 390.253906 L 1189.230469 392.203125 " fill-opacity="1" fill-rule="nonzero"/><path fill="rgb(16.468811%, 29.798889%, 37.249756%)" d="M 888.648438 401.109375 C 888.648438 401.933594 887.355469 402.605469 885.761719 402.605469 L 874.953125 402.605469 C 873.359375 402.605469 872.070312 401.933594 872.070312 401.109375 L 872.070312 399.039062 C 872.070312 398.214844 873.359375 397.542969 874.953125 397.542969 L 885.761719 397.542969 C 887.355469 397.542969 888.648438 398.214844 888.648438 399.039062 L 888.648438 401.109375 " fill-opacity="1" fill-rule="nonzero"/><path fill="rgb(16.468811%, 29.798889%, 37.249756%)" d="M 914.484375 401.109375 C 914.484375 401.933594 913.195312 402.605469 911.601562 402.605469 L 900.789062 402.605469 C 899.199219 402.605469 897.90625 401.933594 897.90625 401.109375 L 897.90625 399.039062 C 897.90625 398.214844 899.199219 397.542969 900.789062 397.542969 L 911.601562 397.542969 C 913.195312 397.542969 914.484375 398.214844 914.484375 399.039062 L 914.484375 401.109375 " fill-opacity="1" fill-rule="nonzero"/><path fill="rgb(16.468811%, 29.798889%, 37.249756%)" d="M 940.324219 401.109375 C 940.324219 401.933594 939.035156 402.605469 937.4375 402.605469 L 926.621094 402.605469 C 925.035156 402.605469 923.746094 401.933594 923.746094 401.109375 L 923.746094 399.039062 C 923.746094 398.214844 925.035156 397.542969 926.621094 397.542969 L 937.4375 397.542969 C 939.035156 397.542969 940.324219 398.214844 940.324219 399.039062 L 940.324219 401.109375 " fill-opacity="1" fill-rule="nonzero"/><path fill="rgb(16.468811%, 29.798889%, 37.249756%)" d="M 966.164062 401.109375 C 966.164062 401.933594 964.871094 402.605469 963.28125 402.605469 L 952.464844 402.605469 C 950.875 402.605469 949.582031 401.933594 949.582031 401.109375 L 949.582031 399.039062 C 949.582031 398.214844 950.875 397.542969 952.464844 397.542969 L 963.28125 397.542969 C 964.871094 397.542969 966.164062 398.214844 966.164062 399.039062 L 966.164062 401.109375 " fill-opacity="1" fill-rule="nonzero"/><path fill="rgb(16.468811%, 29.798889%, 37.249756%)" d="M 991.996094 401.109375 C 991.996094 401.933594 990.710938 402.605469 989.113281 402.605469 L 978.304688 402.605469 C 976.710938 402.605469 975.421875 401.933594 975.421875 401.109375 L 975.421875 399.039062 C 975.421875 398.214844 976.710938 397.542969 978.304688 397.542969 L 989.113281 397.542969 C 990.710938 397.542969 991.996094 398.214844 991.996094 399.039062 L 991.996094 401.109375 " fill-opacity="1" fill-rule="nonzero"/><path fill="rgb(16.468811%, 29.798889%, 37.249756%)" d="M 1017.832031 401.109375 C 1017.832031 401.933594 1016.546875 402.605469 1014.957031 402.605469 L 1004.140625 402.605469 C 1002.550781 402.605469 1001.257812 401.933594 1001.257812 401.109375 L 1001.257812 399.039062 C 1001.257812 398.214844 1002.550781 397.542969 1004.140625 397.542969 L 1014.957031 397.542969 C 1016.546875 397.542969 1017.832031 398.214844 1017.832031 399.039062 L 1017.832031 401.109375 " fill-opacity="1" fill-rule="nonzero"/><path fill="rgb(16.468811%, 29.798889%, 37.249756%)" d="M 1043.675781 401.109375 C 1043.675781 401.933594 1042.386719 402.605469 1040.789062 402.605469 L 1029.976562 402.605469 C 1028.386719 402.605469 1027.101562 401.933594 1027.101562 401.109375 L 1027.101562 399.039062 C 1027.101562 398.214844 1028.386719 397.542969 1029.976562 397.542969 L 1040.789062 397.542969 C 1042.386719 397.542969 1043.675781 398.214844 1043.675781 399.039062 L 1043.675781 401.109375 " fill-opacity="1" fill-rule="nonzero"/><path fill="rgb(16.468811%, 29.798889%, 37.249756%)" d="M 1069.515625 401.109375 C 1069.515625 401.933594 1068.222656 402.605469 1066.632812 402.605469 L 1055.816406 402.605469 C 1054.226562 402.605469 1052.9375 401.933594 1052.9375 401.109375 L 1052.9375 399.039062 C 1052.9375 398.214844 1054.226562 397.542969 1055.816406 397.542969 L 1066.632812 397.542969 C 1068.222656 397.542969 1069.515625 398.214844 1069.515625 399.039062 L 1069.515625 401.109375 " fill-opacity="1" fill-rule="nonzero"/><path fill="rgb(16.468811%, 29.798889%, 37.249756%)" d="M 1095.347656 401.109375 C 1095.347656 401.933594 1094.0625 402.605469 1092.46875 402.605469 L 1081.652344 402.605469 C 1080.0625 402.605469 1078.773438 401.933594 1078.773438 401.109375 L 1078.773438 399.039062 C 1078.773438 398.214844 1080.0625 397.542969 1081.652344 397.542969 L 1092.46875 397.542969 C 1094.0625 397.542969 1095.347656 398.214844 1095.347656 399.039062 L 1095.347656 401.109375 " fill-opacity="1" fill-rule="nonzero"/><path fill="rgb(16.468811%, 29.798889%, 37.249756%)" d="M 1121.191406 401.109375 C 1121.191406 401.933594 1119.898438 402.605469 1118.308594 402.605469 L 1107.492188 402.605469 C 1105.90625 402.605469 1104.609375 401.933594 1104.609375 401.109375 L 1104.609375 399.039062 C 1104.609375 398.214844 1105.90625 397.542969 1107.492188 397.542969 L 1118.308594 397.542969 C 1119.898438 397.542969 1121.191406 398.214844 1121.191406 399.039062 L 1121.191406 401.109375 " fill-opacity="1" fill-rule="nonzero"/><path fill="rgb(16.468811%, 29.798889%, 37.249756%)" d="M 1147.027344 401.109375 C 1147.027344 401.933594 1145.734375 402.605469 1144.140625 402.605469 L 1133.335938 402.605469 C 1131.742188 402.605469 1130.453125 401.933594 1130.453125 401.109375 L 1130.453125 399.039062 C 1130.453125 398.214844 1131.742188 397.542969 1133.335938 397.542969 L 1144.140625 397.542969 C 1145.734375 397.542969 1147.027344 398.214844 1147.027344 399.039062 L 1147.027344 401.109375 " fill-opacity="1" fill-rule="nonzero"/><path fill="rgb(16.468811%, 29.798889%, 37.249756%)" d="M 1172.859375 401.109375 C 1172.859375 401.933594 1171.574219 402.605469 1169.984375 402.605469 L 1159.167969 402.605469 C 1157.582031 402.605469 1156.289062 401.933594 1156.289062 401.109375 L 1156.289062 399.039062 C 1156.289062 398.214844 1157.582031 397.542969 1159.167969 397.542969 L 1169.984375 397.542969 C 1171.574219 397.542969 1172.859375 398.214844 1172.859375 399.039062 L 1172.859375 401.109375 " fill-opacity="1" fill-rule="nonzero"/><path fill="rgb(16.468811%, 29.798889%, 37.249756%)" d="M 1198.703125 401.109375 C 1198.703125 401.933594 1197.410156 402.605469 1195.820312 402.605469 L 1185.003906 402.605469 C 1183.414062 402.605469 1182.128906 401.933594 1182.128906 401.109375 L 1182.128906 399.039062 C 1182.128906 398.214844 1183.414062 397.542969 1185.003906 397.542969 L 1195.820312 397.542969 C 1197.410156 397.542969 1198.703125 398.214844 1198.703125 399.039062 L 1198.703125 401.109375 " fill-opacity="1" fill-rule="nonzero"/><path fill="rgb(16.468811%, 29.798889%, 37.249756%)" d="M 879.152344 410.703125 C 879.152344 411.523438 877.777344 412.191406 876.078125 412.191406 L 864.570312 412.191406 C 862.871094 412.191406 861.503906 411.523438 861.503906 410.703125 L 861.503906 408.632812 C 861.503906 407.800781 862.871094 407.132812 864.570312 407.132812 L 876.078125 407.132812 C 877.777344 407.132812 879.152344 407.800781 879.152344 408.632812 L 879.152344 410.703125 " fill-opacity="1" fill-rule="nonzero"/><path fill="rgb(16.468811%, 29.798889%, 37.249756%)" d="M 906.660156 410.703125 C 906.660156 411.523438 905.289062 412.191406 903.59375 412.191406 L 892.074219 412.191406 C 890.386719 412.191406 889.011719 411.523438 889.011719 410.703125 L 889.011719 408.632812 C 889.011719 407.800781 890.386719 407.132812 892.074219 407.132812 L 903.59375 407.132812 C 905.289062 407.132812 906.660156 407.800781 906.660156 408.632812 L 906.660156 410.703125 " fill-opacity="1" fill-rule="nonzero"/><path fill="rgb(16.468811%, 29.798889%, 37.249756%)" d="M 934.171875 410.703125 C 934.171875 411.523438 932.796875 412.191406 931.101562 412.191406 L 919.585938 412.191406 C 917.894531 412.191406 916.523438 411.523438 916.523438 410.703125 L 916.523438 408.632812 C 916.523438 407.800781 917.894531 407.132812 919.585938 407.132812 L 931.101562 407.132812 C 932.796875 407.132812 934.171875 407.800781 934.171875 408.632812 L 934.171875 410.703125 " fill-opacity="1" fill-rule="nonzero"/><path fill="rgb(16.468811%, 29.798889%, 37.249756%)" d="M 961.679688 410.703125 C 961.679688 411.523438 960.304688 412.191406 958.613281 412.191406 L 947.097656 412.191406 C 945.40625 412.191406 944.03125 411.523438 944.03125 410.703125 L 944.03125 408.632812 C 944.03125 407.800781 945.40625 407.132812 947.097656 407.132812 L 958.613281 407.132812 C 960.304688 407.132812 961.679688 407.800781 961.679688 408.632812 L 961.679688 410.703125 " fill-opacity="1" fill-rule="nonzero"/><path fill="rgb(16.468811%, 29.798889%, 37.249756%)" d="M 989.1875 410.703125 C 989.1875 411.523438 987.820312 412.191406 986.121094 412.191406 L 974.605469 412.191406 C 972.914062 412.191406 971.542969 411.523438 971.542969 410.703125 L 971.542969 408.632812 C 971.542969 407.800781 972.914062 407.132812 974.605469 407.132812 L 986.121094 407.132812 C 987.820312 407.132812 989.1875 407.800781 989.1875 408.632812 L 989.1875 410.703125 " fill-opacity="1" fill-rule="nonzero"/><path fill="rgb(16.468811%, 29.798889%, 37.249756%)" d="M 1016.703125 410.703125 C 1016.703125 411.523438 1015.332031 412.191406 1013.632812 412.191406 L 1002.121094 412.191406 C 1000.425781 412.191406 999.050781 411.523438 999.050781 410.703125 L 999.050781 408.632812 C 999.050781 407.800781 1000.425781 407.132812 1002.121094 407.132812 L 1013.632812 407.132812 C 1015.332031 407.132812 1016.703125 407.800781 1016.703125 408.632812 L 1016.703125 410.703125 " fill-opacity="1" fill-rule="nonzero"/><path fill="rgb(16.468811%, 29.798889%, 37.249756%)" d="M 1044.214844 410.703125 C 1044.214844 411.523438 1042.839844 412.191406 1041.140625 412.191406 L 1029.628906 412.191406 C 1027.9375 412.191406 1026.5625 411.523438 1026.5625 410.703125 L 1026.5625 408.632812 C 1026.5625 407.800781 1027.9375 407.132812 1029.628906 407.132812 L 1041.140625 407.132812 C 1042.839844 407.132812 1044.214844 407.800781 1044.214844 408.632812 L 1044.214844 410.703125 " fill-opacity="1" fill-rule="nonzero"/><path fill="rgb(16.468811%, 29.798889%, 37.249756%)" d="M 1071.722656 410.703125 C 1071.722656 411.523438 1070.347656 412.191406 1068.652344 412.191406 L 1057.140625 412.191406 C 1055.445312 412.191406 1054.070312 411.523438 1054.070312 410.703125 L 1054.070312 408.632812 C 1054.070312 407.800781 1055.445312 407.132812 1057.140625 407.132812 L 1068.652344 407.132812 C 1070.347656 407.132812 1071.722656 407.800781 1071.722656 408.632812 L 1071.722656 410.703125 " fill-opacity="1" fill-rule="nonzero"/><path fill="rgb(16.468811%, 29.798889%, 37.249756%)" d="M 1099.230469 410.703125 C 1099.230469 411.523438 1097.859375 412.191406 1096.164062 412.191406 L 1084.648438 412.191406 C 1082.953125 412.191406 1081.582031 411.523438 1081.582031 410.703125 L 1081.582031 408.632812 C 1081.582031 407.800781 1082.953125 407.132812 1084.648438 407.132812 L 1096.164062 407.132812 C 1097.859375 407.132812 1099.230469 407.800781 1099.230469 408.632812 L 1099.230469 410.703125 " fill-opacity="1" fill-rule="nonzero"/><path fill="rgb(16.468811%, 29.798889%, 37.249756%)" d="M 1126.742188 410.703125 C 1126.742188 411.523438 1125.371094 412.191406 1123.671875 412.191406 L 1112.15625 412.191406 C 1110.46875 412.191406 1109.089844 411.523438 1109.089844 410.703125 L 1109.089844 408.632812 C 1109.089844 407.800781 1110.46875 407.132812 1112.15625 407.132812 L 1123.671875 407.132812 C 1125.371094 407.132812 1126.742188 407.800781 1126.742188 408.632812 L 1126.742188 410.703125 " fill-opacity="1" fill-rule="nonzero"/><path fill="rgb(16.468811%, 29.798889%, 37.249756%)" d="M 1154.25 410.703125 C 1154.25 411.523438 1152.878906 412.191406 1151.179688 412.191406 L 1139.671875 412.191406 C 1137.976562 412.191406 1136.605469 411.523438 1136.605469 410.703125 L 1136.605469 408.632812 C 1136.605469 407.800781 1137.976562 407.132812 1139.671875 407.132812 L 1151.179688 407.132812 C 1152.878906 407.132812 1154.25 407.800781 1154.25 408.632812 L 1154.25 410.703125 " fill-opacity="1" fill-rule="nonzero"/><path fill="rgb(16.468811%, 29.798889%, 37.249756%)" d="M 1181.761719 410.703125 C 1181.761719 411.523438 1180.390625 412.191406 1178.695312 412.191406 L 1167.179688 412.191406 C 1165.488281 412.191406 1164.113281 411.523438 1164.113281 410.703125 L 1164.113281 408.632812 C 1164.113281 407.800781 1165.488281 407.132812 1167.179688 407.132812 L 1178.695312 407.132812 C 1180.390625 407.132812 1181.761719 407.800781 1181.761719 408.632812 L 1181.761719 410.703125 " fill-opacity="1" fill-rule="nonzero"/><path fill="rgb(16.468811%, 29.798889%, 37.249756%)" d="M 1209.269531 410.703125 C 1209.269531 411.523438 1207.898438 412.191406 1206.203125 412.191406 L 1194.695312 412.191406 C 1192.996094 412.191406 1191.625 411.523438 1191.625 410.703125 L 1191.625 408.632812 C 1191.625 407.800781 1192.996094 407.132812 1194.695312 407.132812 L 1206.203125 407.132812 C 1207.898438 407.132812 1209.269531 407.800781 1209.269531 408.632812 L 1209.269531 410.703125 " fill-opacity="1" fill-rule="nonzero"/><path fill="rgb(16.468811%, 29.798889%, 37.249756%)" d="M 1072.40625 419.554688 C 1072.40625 420.484375 1071.03125 421.230469 1069.335938 421.230469 L 1001.4375 421.230469 C 999.742188 421.230469 998.367188 420.484375 998.367188 419.554688 L 998.367188 417.234375 C 998.367188 416.3125 999.742188 415.554688 1001.4375 415.554688 L 1069.335938 415.554688 C 1071.03125 415.554688 1072.40625 416.3125 1072.40625 417.234375 L 1072.40625 419.554688 " fill-opacity="1" fill-rule="nonzero"/><g clip-path="url(#id8)"><path fill="rgb(11.759949%, 27.449036%, 51.759338%)" d="M 801.605469 381.011719 C 801.605469 387.15625 796.628906 392.15625 790.472656 392.15625 L 458.429688 392.15625 C 452.269531 392.15625 447.292969 387.15625 447.292969 381.011719 L 447.292969 176.441406 C 447.292969 170.277344 452.269531 165.277344 458.429688 165.277344 L 790.472656 165.277344 C 796.628906 165.277344 801.605469 170.277344 801.605469 176.441406 L 801.605469 381.011719 " fill-opacity="1" fill-rule="nonzero"/></g><path fill="rgb(56.858826%, 85.879517%, 93.728638%)" d="M 783.207031 375.773438 L 465.695312 375.773438 L 465.695312 181.675781 L 783.207031 181.675781 L 783.207031 375.773438 " fill-opacity="1" fill-rule="nonzero"/><path fill="rgb(5.879211%, 14.898682%, 28.62854%)" d="M 664.410156 422.375 L 584.488281 422.375 L 584.488281 392.15625 L 664.410156 392.15625 L 664.410156 422.375 " fill-opacity="1" fill-rule="nonzero"/><g clip-path="url(#id9)"><path fill="rgb(11.759949%, 27.449036%, 51.759338%)" d="M 694.273438 442.375 C 691.804688 430.9375 681.648438 422.375 669.496094 422.375 L 579.402344 422.375 C 567.25 422.375 557.097656 430.9375 554.625 442.375 L 694.273438 442.375 " fill-opacity="1" fill-rule="nonzero"/></g></svg>