<svg xmlns="http://www.w3.org/2000/svg" xmlns:xlink="http://www.w3.org/1999/xlink" width="500" zoomAndPan="magnify" viewBox="0 0 375 374.999991" height="500" preserveAspectRatio="xMidYMid meet" version="1.0"><defs><clipPath id="id1"><path d="M 137 33 L 238 33 L 238 343.640625 L 137 343.640625 Z M 137 33 " clip-rule="nonzero"/></clipPath></defs><g clip-path="url(#id1)"><path fill="rgb(25.878906%, 59.999084%, 88.238525%)" d="M 226.117188 33.839844 C 217.828125 31.703125 209.394531 36.804688 207.335938 45.132812 L 137.597656 324.339844 C 135.507812 332.640625 140.558594 341.0625 148.882812 343.140625 C 150.136719 343.449219 151.40625 343.605469 152.648438 343.605469 C 159.589844 343.605469 165.894531 338.90625 167.664062 331.847656 L 237.402344 52.640625 C 239.480469 44.34375 234.425781 35.917969 226.117188 33.839844 Z M 226.117188 33.839844 " fill-opacity="1" fill-rule="nonzero"/></g><path fill="rgb(25.878906%, 59.999084%, 88.238525%)" d="M 120.96875 84.457031 C 114.90625 78.390625 105.113281 78.390625 99.054688 84.457031 L 6.070312 177.527344 C 0.0117188 183.589844 0.0117188 193.394531 6.070312 199.457031 L 99.054688 292.527344 C 102.074219 295.550781 106.046875 297.070312 110.011719 297.070312 C 113.980469 297.070312 117.945312 295.550781 120.96875 292.527344 C 127.027344 286.460938 127.027344 276.65625 120.96875 270.59375 L 38.941406 188.492188 L 120.96875 106.390625 C 127.027344 100.328125 127.027344 90.523438 120.96875 84.457031 Z M 120.96875 84.457031 " fill-opacity="1" fill-rule="nonzero"/><path fill="rgb(25.878906%, 59.999084%, 88.238525%)" d="M 368.929688 177.527344 L 275.945312 84.457031 C 269.886719 78.390625 260.089844 78.390625 254.03125 84.457031 C 247.96875 90.523438 247.96875 100.328125 254.03125 106.390625 L 336.0625 188.492188 L 254.03125 270.59375 C 247.96875 276.65625 247.96875 286.460938 254.03125 292.527344 C 257.054688 295.550781 261.019531 297.070312 264.988281 297.070312 C 268.953125 297.070312 272.921875 295.550781 275.945312 292.527344 L 368.929688 199.457031 C 374.988281 193.394531 374.988281 183.589844 368.929688 177.527344 Z M 368.929688 177.527344 " fill-opacity="1" fill-rule="nonzero"/></svg>